<?xml version="1.0" standalone="no"?>
<!DOCTYPE svg PUBLIC "-//W3C//DTD SVG 20010904//EN" "http://www.w3.org/TR/2001/REC-SVG-20010904/DTD/svg10.dtd">
<svg xmlns="http://www.w3.org/2000/svg" version="1.0" width="267.000000pt" height="288.000000pt" viewBox="0 0 267.000000 288.000000" preserveAspectRatio="xMidYMid meet">
<metadata>
Created by potrace 1.16, written by Peter Selinger 2001-2019
<meta name="Producer" content="Online-Convert"/></metadata>
<g transform="translate(0.000000,288.000000) scale(0.100000,-0.100000)" fill="#000000" stroke="none">
<path d="M2140 2860 c-39 -13 -173 -40 -196 -40 -31 0 -169 -46 -234 -78 -178 -88 -328 -233 -404 -392 -49 -102 -65 -174 -75 -340 -6 -88 -15 -144 -31 -190 -34 -99 -49 -130 -60 -130 -18 0 -121 60 -170 98 -72 56 -180 165 -180 181 0 23 103 151 162 202 70 60 142 112 198 141 25 13 45 30 45 38 0 48 -249 -44 -390 -145 -108 -77 -230 -227 -279 -345 -10 -25 -22 -54 -27 -65 -7 -19 -24 -77 -48 -171 -16 -60 -14 -326 3 -404 74 -347 304 -625 602 -726 108 -37 157 -44 290 -44 137 0 156 3 299 52 67 23 206 109 186 116 -8 3 -16 0 -20 -5 -6 -9 -85 -48 -145 -72 -45 -18 -213 -51 -261 -51 -36 0 -48 5 -71 33 -32 38 -99 178 -114 239 -22 88 -41 190 -36 196 3 2 43 -3 88 -12 108 -21 332 -22 411 -1 32 8 69 15 83 15 13 0 32 4 42 9 9 6 44 19 77 30 101 33 252 119 281 159 12 17 0 14 -63 -17 -108 -52 -150 -66 -286 -96 -78 -17 -382 -21 -450 -6 -23 6 -77 17 -119 27 -90 20 -81 -1 -78 189 1 66 6 142 11 170 5 27 12 67 16 88 6 37 8 39 37 34 17 -2 51 -9 76 -15 25 -6 77 -16 115 -23 106 -17 384 0 455 28 14 6 43 16 65 23 57 18 156 66 185 90 24 19 24 20 4 20 -11 0 -24 -3 -28 -7 -3 -4 -23 -13 -44 -20 -180 -65 -255 -77 -432 -70 -135 6 -230 17 -279 35 -14 5 -46 16 -70 23 -48 14 -59 30 -44 62 6 12 16 40 22 62 14 47 17 52 70 167 64 140 177 295 302 413 106 101 260 218 271 207 7 -7 -13 -33 -57 -78 -111 -113 -224 -263 -428 -562 -31 -46 -57 -89 -57 -96 0 -11 15 -11 78 0 170 28 240 48 330 95 125 65 207 148 285 290 44 80 107 305 107 381 0 19 4 59 9 89 5 30 12 89 16 132 6 83 6 83 -45 67z m-1342 -1061 c75 -68 178 -139 267 -185 65 -34 63 -28 45 -124 -20 -108 -29 -189 -31 -264 -1 -42 -7 -83 -14 -93 -11 -15 -15 -15 -57 5 -24 12 -47 22 -51 22 -3 0 -45 22 -93 50 -91 52 -217 150 -239 185 -15 23 -6 165 15 232 6 21 16 54 21 73 13 46 60 160 66 160 3 0 35 -27 71 -61z m-144 -608 c23 -36 268 -164 351 -183 58 -13 85 -34 85 -65 0 -15 4 -40 9 -57 6 -17 18 -58 27 -91 24 -85 68 -174 114 -229 39 -47 48 -66 32 -66 -10 0 -142 48 -172 62 -122 60 -227 147 -310 253 -61 79 -139 248 -140 302 0 12 -4 25 -10 28 -13 8 -13 55 -1 55 6 0 12 -4 15 -9z"/>
<path d="M1175 2781 c-16 -5 -50 -9 -74 -10 -47 -1 -59 -4 -191 -46 -185 -59 -334 -150 -481 -292 -260 -252 -402 -576 -424 -968 -11 -189 38 -472 110 -630 7 -16 25 -56 39 -87 48 -105 166 -269 266 -368 228 -228 517 -357 835 -375 118 -7 290 5 350 24 17 5 68 21 115 36 181 57 329 147 480 291 146 141 281 337 335 489 8 22 22 60 31 85 18 49 21 62 54 224 18 94 21 133 17 285 -4 163 -9 199 -45 356 -29 124 -132 341 -218 461 -107 148 -119 163 -130 164 -6 0 -17 -21 -24 -47 -6 -27 -29 -94 -51 -149 -21 -56 -39 -106 -39 -112 0 -5 17 -40 39 -76 40 -69 101 -212 120 -281 37 -138 41 -171 41 -350 0 -166 -3 -194 -26 -287 -55 -214 -149 -384 -294 -528 -236 -237 -519 -327 -850 -271 -294 49 -571 260 -722 551 -134 256 -173 578 -102 838 9 31 19 71 24 87 4 17 19 55 32 85 115 267 307 459 568 568 54 23 198 56 287 67 48 6 54 10 99 66 26 32 78 85 116 116 37 31 68 60 68 64 0 16 -307 33 -355 20z"/>
</g>
</svg>
